<?xml version="1.0"?>
<svg class="svg--fast" xmlns="http://www.w3.org/2000/svg" viewBox="0 0 64 64" width="512" height="512"><g id="Fast_Charging" data-name="Fast Charging"><path d="M47.91,31.41l-4,9A1,1,0,0,1,43,41a1.492,1.492,0,0,1-.21-.02A1,1,0,0,1,42,40V34H39a1,1,0,0,1-.91-1.41l4-9a.991.991,0,0,1,1.12-.57A1,1,0,0,1,44,24v6h3a1,1,0,0,1,.91,1.41Z"/><path d="M43,15H16a2.015,2.015,0,0,0-2,2,2.006,2.006,0,0,0,2,2,1,1,0,0,1,0,2H10a2.015,2.015,0,0,0-2,2,2.006,2.006,0,0,0,2,2H25.96a1,1,0,0,1,1.03,1.32,17.222,17.222,0,0,0-.75,2.97,1.008,1.008,0,0,1-1.07.84,1.1,1.1,0,0,1-.41-.13H18a2.015,2.015,0,0,0-2,2,2.006,2.006,0,0,0,2,2h7.01c.05-.01.11-.02.17-.03a.983.983,0,0,1,1.07.8,17,17,0,0,0,.74,2.91,1.006,1.006,0,0,1-.34,1.14.984.984,0,0,1-.77.18H10a2.006,2.006,0,0,0-2,2,2.015,2.015,0,0,0,2,2h6a1,1,0,0,1,0,2,2.006,2.006,0,0,0-2,2,2.015,2.015,0,0,0,2,2H43a17,17,0,0,0,0-34Zm0,30A13,13,0,1,1,56,32,13.012,13.012,0,0,1,43,45Z"/><path d="M8,34a2,2,0,0,0,0-4H6a2,2,0,0,0,0,4Z"/></g></svg>
